<svg width="45" height="45" viewBox="0 0 45 45" fill="none" xmlns="http://www.w3.org/2000/svg">
<circle cx="22.5" cy="22.5" r="22.5" fill="#FFB445"/>
<g clip-path="url(#clip0_72_1401)">
<path fill-rule="evenodd" clip-rule="evenodd" d="M26.7069 21.293C26.8943 21.4805 26.9996 21.7348 26.9996 22C26.9996 22.2652 26.8943 22.5195 26.7069 22.707L21.0499 28.364C20.9576 28.4595 20.8473 28.5357 20.7253 28.5881C20.6033 28.6405 20.472 28.6681 20.3393 28.6692C20.2065 28.6704 20.0748 28.6451 19.9519 28.5948C19.829 28.5445 19.7174 28.4703 19.6235 28.3764C19.5296 28.2825 19.4553 28.1708 19.405 28.048C19.3548 27.9251 19.3295 27.7934 19.3306 27.6606C19.3318 27.5278 19.3593 27.3966 19.4118 27.2746C19.4642 27.1526 19.5403 27.0422 19.6359 26.95L24.5859 22L19.6359 17.05C19.4537 16.8614 19.3529 16.6088 19.3552 16.3466C19.3575 16.0844 19.4626 15.8336 19.648 15.6482C19.8334 15.4628 20.0843 15.3576 20.3465 15.3553C20.6087 15.353 20.8613 15.4538 21.0499 15.636L26.7069 21.293Z" fill="white"/>
</g>
<defs>
<clipPath id="clip0_72_1401">
<rect width="24" height="24" fill="white" transform="translate(11 10)"/>
</clipPath>
</defs>
</svg>
