<svg width="45" height="45" viewBox="0 0 45 45" fill="none" xmlns="http://www.w3.org/2000/svg">
<circle cx="22.5" cy="22.5" r="22.5" transform="matrix(-1 0 0 1 45 0)" fill="#FFB445"/>
<g clip-path="url(#clip0_72_1402)">
<path fill-rule="evenodd" clip-rule="evenodd" d="M18.2931 21.293C18.1057 21.4805 18.0004 21.7348 18.0004 22C18.0004 22.2652 18.1057 22.5195 18.2931 22.707L23.9501 28.364C24.0424 28.4595 24.1527 28.5357 24.2747 28.5881C24.3967 28.6405 24.528 28.6681 24.6607 28.6692C24.7935 28.6704 24.9252 28.6451 25.0481 28.5948C25.171 28.5445 25.2826 28.4703 25.3765 28.3764C25.4704 28.2825 25.5447 28.1708 25.595 28.048C25.6452 27.9251 25.6705 27.7934 25.6694 27.6606C25.6682 27.5278 25.6407 27.3966 25.5882 27.2746C25.5358 27.1526 25.4597 27.0422 25.3641 26.95L20.4141 22L25.3641 17.05C25.5463 16.8614 25.6471 16.6088 25.6448 16.3466C25.6425 16.0844 25.5374 15.8336 25.352 15.6482C25.1666 15.4628 24.9157 15.3576 24.6535 15.3553C24.3913 15.353 24.1387 15.4538 23.9501 15.636L18.2931 21.293Z" fill="white"/>
</g>
<defs>
<clipPath id="clip0_72_1402">
<rect width="24" height="24" fill="white" transform="matrix(-1 0 0 1 34 10)"/>
</clipPath>
</defs>
</svg>
