<svg width="24" height="25" viewBox="0 0 24 25" fill="none" xmlns="http://www.w3.org/2000/svg">
<path d="M13.028 2.32691C13.7577 2.32411 14.4874 2.33145 15.217 2.34891L15.411 2.35591C15.635 2.36391 15.856 2.37391 16.123 2.38591C17.187 2.43591 17.913 2.60391 18.55 2.85091C19.21 3.10491 19.766 3.44891 20.322 4.00491C20.8303 4.50452 21.2238 5.10886 21.475 5.77591C21.722 6.41291 21.89 7.13991 21.94 8.20391C21.952 8.46991 21.962 8.69191 21.97 8.91591L21.976 9.10991C21.9937 9.83911 22.0014 10.5685 21.999 11.2979L22 12.0439V13.3539C22.0024 14.0837 21.9948 14.8134 21.977 15.5429L21.971 15.7369C21.963 15.9609 21.953 16.1819 21.941 16.4489C21.891 17.5129 21.721 18.2389 21.475 18.8759C21.2246 19.5437 20.8311 20.1485 20.322 20.6479C19.8219 21.1562 19.2173 21.5497 18.55 21.8009C17.913 22.0479 17.187 22.2159 16.123 22.2659C15.856 22.2779 15.635 22.2879 15.411 22.2959L15.217 22.3019C14.4874 22.3197 13.7577 22.3274 13.028 22.3249L12.282 22.3259H10.973C10.2432 22.3284 9.51349 22.3207 8.78397 22.3029L8.58997 22.2969C8.35258 22.2883 8.11524 22.2783 7.87797 22.2669C6.81397 22.2169 6.08797 22.0469 5.44997 21.8009C4.78265 21.5503 4.1782 21.1567 3.67897 20.6479C3.17001 20.1482 2.77619 19.5435 2.52497 18.8759C2.27797 18.2389 2.10997 17.5129 2.05997 16.4489C2.04883 16.2116 2.03883 15.9743 2.02997 15.7369L2.02497 15.5429C2.00653 14.8134 1.9982 14.0837 1.99997 13.3539V11.2979C1.99718 10.5685 2.00451 9.83911 2.02197 9.10991L2.02897 8.91591C2.03697 8.69191 2.04697 8.46991 2.05897 8.20391C2.10897 7.13891 2.27697 6.41391 2.52397 5.77591C2.77534 5.10853 3.16993 4.50436 3.67997 4.00591C4.17886 3.49667 4.78293 3.10249 5.44997 2.85091C6.08797 2.60391 6.81297 2.43591 7.87797 2.38591L8.58997 2.35591L8.78397 2.35091C9.51315 2.33249 10.2426 2.32415 10.972 2.32591L13.028 2.32691ZM12 7.32691C11.3375 7.31754 10.6797 7.43994 10.0649 7.68698C9.45016 7.93403 8.89061 8.30079 8.41881 8.76597C7.94701 9.23114 7.57237 9.78545 7.31665 10.3967C7.06094 11.0079 6.92926 11.6639 6.92926 12.3264C6.92926 12.989 7.06094 13.6449 7.31665 14.2562C7.57237 14.8674 7.94701 15.4217 8.41881 15.8869C8.89061 16.352 9.45016 16.7188 10.0649 16.9658C10.6797 17.2129 11.3375 17.3353 12 17.3259C13.326 17.3259 14.5978 16.7991 15.5355 15.8614C16.4732 14.9238 17 13.652 17 12.3259C17 10.9998 16.4732 9.72806 15.5355 8.79038C14.5978 7.8527 13.326 7.32691 12 7.32691ZM12 9.32691C12.3985 9.31957 12.7944 9.39171 13.1648 9.53912C13.5351 9.68653 13.8723 9.90626 14.1567 10.1855C14.4412 10.4647 14.6671 10.7977 14.8214 11.1653C14.9757 11.5328 15.0552 11.9273 15.0552 12.3259C15.0553 12.7245 14.9759 13.1191 14.8218 13.4866C14.6677 13.8542 14.4418 14.1874 14.1575 14.4667C13.8731 14.7459 13.536 14.9658 13.1657 15.1133C12.7954 15.2609 12.3995 15.3331 12.001 15.3259C11.2053 15.3259 10.4423 15.0098 9.87965 14.4472C9.31704 13.8846 9.00097 13.1216 9.00097 12.3259C9.00097 11.5303 9.31704 10.7672 9.87965 10.2046C10.4423 9.64198 11.2053 9.32591 12.001 9.32591L12 9.32691ZM17.25 5.82691C16.9274 5.83983 16.6223 5.97706 16.3986 6.20989C16.1749 6.44271 16.05 6.75305 16.05 7.07591C16.05 7.39878 16.1749 7.70912 16.3986 7.94194C16.6223 8.17476 16.9274 8.312 17.25 8.32491C17.5815 8.32491 17.8994 8.19322 18.1339 7.9588C18.3683 7.72438 18.5 7.40643 18.5 7.07491C18.5 6.74339 18.3683 6.42545 18.1339 6.19103C17.8994 5.95661 17.5815 5.82491 17.25 5.82491V5.82691Z" fill="#002D3A"/>
</svg>
