<svg width="29" height="29" viewBox="0 0 29 29" fill="none" xmlns="http://www.w3.org/2000/svg">
<path d="M5.00016 21.5H23.6668C24.3085 21.5 24.8335 20.975 24.8335 20.3333C24.8335 19.6917 24.3085 19.1667 23.6668 19.1667H5.00016C4.3585 19.1667 3.8335 19.6917 3.8335 20.3333C3.8335 20.975 4.3585 21.5 5.00016 21.5ZM5.00016 15.6667H23.6668C24.3085 15.6667 24.8335 15.1417 24.8335 14.5C24.8335 13.8583 24.3085 13.3333 23.6668 13.3333H5.00016C4.3585 13.3333 3.8335 13.8583 3.8335 14.5C3.8335 15.1417 4.3585 15.6667 5.00016 15.6667ZM3.8335 8.66667C3.8335 9.30833 4.3585 9.83333 5.00016 9.83333H23.6668C24.3085 9.83333 24.8335 9.30833 24.8335 8.66667C24.8335 8.025 24.3085 7.5 23.6668 7.5H5.00016C4.3585 7.5 3.8335 8.025 3.8335 8.66667Z" fill="white"/>
</svg>
