<svg width="24" height="25" viewBox="0 0 24 25" fill="none" xmlns="http://www.w3.org/2000/svg">
<path d="M4 18.6152H20C20.55 18.6152 21 18.1652 21 17.6152C21 17.0652 20.55 16.6152 20 16.6152H4C3.45 16.6152 3 17.0652 3 17.6152C3 18.1652 3.45 18.6152 4 18.6152ZM4 13.6152H20C20.55 13.6152 21 13.1652 21 12.6152C21 12.0652 20.55 11.6152 20 11.6152H4C3.45 11.6152 3 12.0652 3 12.6152C3 13.1652 3.45 13.6152 4 13.6152ZM3 7.61523C3 8.16523 3.45 8.61523 4 8.61523H20C20.55 8.61523 21 8.16523 21 7.61523C21 7.06523 20.55 6.61523 20 6.61523H4C3.45 6.61523 3 7.06523 3 7.61523Z" fill="#017931"/>
</svg>
