<svg width="24" height="25" viewBox="0 0 24 25" fill="none" xmlns="http://www.w3.org/2000/svg">
<path d="M9.04 21.8657C10 22.1557 10.97 22.3257 12 22.3257C14.6522 22.3257 17.1957 21.2721 19.0711 19.3968C20.9464 17.5214 22 14.9778 22 12.3257C22 11.0125 21.7413 9.7121 21.2388 8.49885C20.7362 7.28559 19.9997 6.1832 19.0711 5.25462C18.1425 4.32603 17.0401 3.58944 15.8268 3.08689C14.6136 2.58434 13.3132 2.32568 12 2.32568C10.6868 2.32568 9.38642 2.58434 8.17317 3.08689C6.95991 3.58944 5.85752 4.32603 4.92893 5.25462C3.05357 7.12998 2 9.67352 2 12.3257C2 16.5757 4.67 20.2257 8.44 21.6657C8.35 20.8857 8.26 19.5957 8.44 18.7057L9.59 13.7657C9.59 13.7657 9.3 13.1857 9.3 12.2657C9.3 10.8857 10.16 9.85568 11.14 9.85568C12 9.85568 12.4 10.4857 12.4 11.2957C12.4 12.1557 11.83 13.3857 11.54 14.5657C11.37 15.5457 12.06 16.4057 13.06 16.4057C14.84 16.4057 16.22 14.5057 16.22 11.8257C16.22 9.42568 14.5 7.78568 12.03 7.78568C9.21 7.78568 7.55 9.88568 7.55 12.0957C7.55 12.9557 7.83 13.8257 8.29 14.3957C8.38 14.4557 8.38 14.5357 8.35 14.6857L8.06 15.7757C8.06 15.9457 7.95 16.0057 7.78 15.8857C6.5 15.3257 5.76 13.5057 5.76 12.0357C5.76 8.87568 8 6.00568 12.32 6.00568C15.76 6.00568 18.44 8.47568 18.44 11.7557C18.44 15.1957 16.31 17.9557 13.26 17.9557C12.29 17.9557 11.34 17.4357 11 16.8257L10.33 19.1957C10.1 20.0557 9.47 21.2057 9.04 21.8957V21.8657Z" fill="#002D3A"/>
</svg>
