<svg width="24" height="25" viewBox="0 0 24 25" fill="none" xmlns="http://www.w3.org/2000/svg">
<path d="M16.6 6.14568C15.9165 5.36531 15.5397 4.36312 15.54 3.32568H12.45V15.7257C12.4262 16.3967 12.1429 17.0323 11.6598 17.4986C11.1767 17.9649 10.5315 18.2256 9.86003 18.2257C8.44003 18.2257 7.26003 17.0657 7.26003 15.6257C7.26003 13.9057 8.92003 12.6157 10.63 13.1457V9.98568C7.18003 9.52568 4.16003 12.2057 4.16003 15.6257C4.16003 18.9557 6.92003 21.3257 9.85003 21.3257C12.99 21.3257 15.54 18.7757 15.54 15.6257V9.33568C16.793 10.2355 18.2974 10.7183 19.84 10.7157V7.62568C19.84 7.62568 17.96 7.71568 16.6 6.14568Z" fill="#002D3A"/>
</svg>
