<svg width="24" height="25" viewBox="0 0 24 25" fill="none" xmlns="http://www.w3.org/2000/svg">
<g clip-path="url(#clip0_38_570)">
<path fill-rule="evenodd" clip-rule="evenodd" d="M12 4.32568C12.855 4.32568 13.732 4.34768 14.582 4.38368L15.586 4.43168L16.547 4.48868L17.447 4.54968L18.269 4.61368C19.161 4.68196 20.0004 5.06263 20.6395 5.68872C21.2786 6.31482 21.6764 7.14622 21.763 8.03668L21.803 8.46168L21.878 9.37168C21.948 10.3147 22 11.3427 22 12.3257C22 13.3087 21.948 14.3367 21.878 15.2797L21.803 16.1897C21.79 16.3357 21.777 16.4767 21.763 16.6147C21.6764 17.5053 21.2784 18.3368 20.6391 18.9629C19.9999 19.5891 19.1602 19.9696 18.268 20.0377L17.448 20.1007L16.548 20.1627L15.586 20.2197L14.582 20.2677C13.7218 20.3051 12.861 20.3244 12 20.3257C11.139 20.3244 10.2782 20.3051 9.418 20.2677L8.414 20.2197L7.453 20.1627L6.553 20.1007L5.731 20.0377C4.83895 19.9694 3.99955 19.5887 3.36047 18.9626C2.72139 18.3366 2.32357 17.5051 2.237 16.6147L2.197 16.1897L2.122 15.2797C2.04554 14.2968 2.00484 13.3115 2 12.3257C2 11.3427 2.052 10.3147 2.122 9.37168L2.197 8.46168C2.21 8.31568 2.223 8.17468 2.237 8.03668C2.32354 7.14638 2.72122 6.3151 3.36009 5.68903C3.99897 5.06295 4.83813 4.68219 5.73 4.61368L6.551 4.54968L7.451 4.48868L8.413 4.43168L9.417 4.38368C10.2775 4.34632 11.1387 4.32698 12 4.32568ZM10 9.90068V14.7507C10 15.2127 10.5 15.5007 10.9 15.2707L15.1 12.8457C15.1914 12.7931 15.2673 12.7173 15.3201 12.626C15.3729 12.5347 15.4007 12.4311 15.4007 12.3257C15.4007 12.2202 15.3729 12.1166 15.3201 12.0253C15.2673 11.9341 15.1914 11.8583 15.1 11.8057L10.9 9.38168C10.8088 9.32901 10.7053 9.30128 10.5999 9.3013C10.4945 9.30132 10.3911 9.32907 10.2998 9.38178C10.2086 9.43449 10.1329 9.51028 10.0802 9.60155C10.0276 9.69281 9.99993 9.79633 10 9.90168V9.90068Z" fill="#002D3A"/>
</g>
<defs>
<clipPath id="clip0_38_570">
<rect width="24" height="24" fill="white" transform="translate(0 0.325684)"/>
</clipPath>
</defs>
</svg>
